<?xml version="1.0" encoding="UTF-8" standalone="no"?>
<!-- Created with Inkscape (http://www.inkscape.org/) -->

<svg
   xmlns:dc="http://purl.org/dc/elements/1.1/"
   xmlns:cc="http://creativecommons.org/ns#"
   xmlns:rdf="http://www.w3.org/1999/02/22-rdf-syntax-ns#"
   xmlns:svg="http://www.w3.org/2000/svg"
   xmlns="http://www.w3.org/2000/svg"
   xmlns:sodipodi="http://sodipodi.sourceforge.net/DTD/sodipodi-0.dtd"
   xmlns:inkscape="http://www.inkscape.org/namespaces/inkscape"
   width="841mm"
   height="594mm"
   viewBox="0 0 841 594"
   version="1.1"
   id="svg4443"
   inkscape:version="0.92.5 (2060ec1f9f, 2020-04-08)"
   sodipodi:docname="Cheryl_SAVEnding_1_inkscape.svg">
  <defs
     id="defs4437">
    <marker
       style="overflow:visible"
       refY="0.0"
       refX="0.0"
       orient="auto"
       id="DistanceX">
      <path
         id="path4447"
         style="stroke:#000000; stroke-width:0.5"
         d="M 3,-3 L -3,3 M 0,-5 L  0,5" />
    </marker>
    <pattern
       y="0"
       x="0"
       width="8"
       patternUnits="userSpaceOnUse"
       id="Hatch"
       height="8">
      <path
         id="path4450"
         stroke-width="0.25"
         stroke="#000000"
         linecap="square"
         d="M8 4 l-4,4" />
      <path
         id="path4452"
         stroke-width="0.25"
         stroke="#000000"
         linecap="square"
         d="M6 2 l-4,4" />
      <path
         id="path4454"
         stroke-width="0.25"
         stroke="#000000"
         linecap="square"
         d="M4 0 l-4,4" />
    </pattern>
    <symbol
       id="*MODEL_SPACE" />
    <symbol
       id="*PAPER_SPACE" />
    <marker
       style="overflow:visible"
       refY="0.0"
       refX="0.0"
       orient="auto"
       id="DistanceX-0">
      <path
         id="path4567"
         style="stroke:#000000; stroke-width:0.5"
         d="M 3,-3 L -3,3 M 0,-5 L  0,5" />
    </marker>
    <pattern
       y="0"
       x="0"
       width="8"
       patternUnits="userSpaceOnUse"
       id="Hatch-0"
       height="8">
      <path
         id="path4570"
         stroke-width="0.25"
         stroke="#000000"
         linecap="square"
         d="M8 4 l-4,4" />
      <path
         id="path4572"
         stroke-width="0.25"
         stroke="#000000"
         linecap="square"
         d="M6 2 l-4,4" />
      <path
         id="path4574"
         stroke-width="0.25"
         stroke="#000000"
         linecap="square"
         d="M4 0 l-4,4" />
    </pattern>
    <symbol
       id="*MODEL_SPACE-2" />
    <symbol
       id="*PAPER_SPACE-7" />
    <marker
       style="overflow:visible"
       refY="0.0"
       refX="0.0"
       orient="auto"
       id="DistanceX-7">
      <path
         id="path4627"
         style="stroke:#000000; stroke-width:0.5"
         d="M 3,-3 L -3,3 M 0,-5 L  0,5" />
    </marker>
    <pattern
       y="0"
       x="0"
       width="8"
       patternUnits="userSpaceOnUse"
       id="Hatch-3"
       height="8">
      <path
         id="path4630"
         stroke-width="0.25"
         stroke="#000000"
         linecap="square"
         d="M8 4 l-4,4" />
      <path
         id="path4632"
         stroke-width="0.25"
         stroke="#000000"
         linecap="square"
         d="M6 2 l-4,4" />
      <path
         id="path4634"
         stroke-width="0.25"
         stroke="#000000"
         linecap="square"
         d="M4 0 l-4,4" />
    </pattern>
    <symbol
       id="*MODEL_SPACE-1" />
    <symbol
       id="*PAPER_SPACE-78" />
    <marker
       style="overflow:visible"
       refY="0.0"
       refX="0.0"
       orient="auto"
       id="DistanceX-77">
      <path
         id="path4663"
         style="stroke:#000000; stroke-width:0.5"
         d="M 3,-3 L -3,3 M 0,-5 L  0,5" />
    </marker>
    <pattern
       y="0"
       x="0"
       width="8"
       patternUnits="userSpaceOnUse"
       id="Hatch-7"
       height="8">
      <path
         id="path4666"
         stroke-width="0.25"
         stroke="#000000"
         linecap="square"
         d="M8 4 l-4,4" />
      <path
         id="path4668"
         stroke-width="0.25"
         stroke="#000000"
         linecap="square"
         d="M6 2 l-4,4" />
      <path
         id="path4670"
         stroke-width="0.25"
         stroke="#000000"
         linecap="square"
         d="M4 0 l-4,4" />
    </pattern>
    <symbol
       id="*MODEL_SPACE-6" />
    <symbol
       id="*PAPER_SPACE-4" />
    <marker
       style="overflow:visible"
       refY="0.0"
       refX="0.0"
       orient="auto"
       id="DistanceX-3">
      <path
         id="path4723"
         style="stroke:#000000; stroke-width:0.5"
         d="M 3,-3 L -3,3 M 0,-5 L  0,5" />
    </marker>
    <pattern
       y="0"
       x="0"
       width="8"
       patternUnits="userSpaceOnUse"
       id="Hatch-5"
       height="8">
      <path
         id="path4726"
         stroke-width="0.25"
         stroke="#000000"
         linecap="square"
         d="M8 4 l-4,4" />
      <path
         id="path4728"
         stroke-width="0.25"
         stroke="#000000"
         linecap="square"
         d="M6 2 l-4,4" />
      <path
         id="path4730"
         stroke-width="0.25"
         stroke="#000000"
         linecap="square"
         d="M4 0 l-4,4" />
    </pattern>
    <symbol
       id="*MODEL_SPACE-12" />
    <symbol
       id="*PAPER_SPACE-1" />
    <marker
       style="overflow:visible"
       refY="0.0"
       refX="0.0"
       orient="auto"
       id="DistanceX-4">
      <path
         id="path4768"
         style="stroke:#000000; stroke-width:0.5"
         d="M 3,-3 L -3,3 M 0,-5 L  0,5" />
    </marker>
    <pattern
       y="0"
       x="0"
       width="8"
       patternUnits="userSpaceOnUse"
       id="Hatch-9"
       height="8">
      <path
         id="path4771"
         stroke-width="0.25"
         stroke="#000000"
         linecap="square"
         d="M8 4 l-4,4" />
      <path
         id="path4773"
         stroke-width="0.25"
         stroke="#000000"
         linecap="square"
         d="M6 2 l-4,4" />
      <path
         id="path4775"
         stroke-width="0.25"
         stroke="#000000"
         linecap="square"
         d="M4 0 l-4,4" />
    </pattern>
    <symbol
       id="*MODEL_SPACE-7" />
    <symbol
       id="*PAPER_SPACE-79" />
    <marker
       style="overflow:visible"
       refY="0.0"
       refX="0.0"
       orient="auto"
       id="DistanceX-8">
      <path
         id="path4804"
         style="stroke:#000000; stroke-width:0.5"
         d="M 3,-3 L -3,3 M 0,-5 L  0,5" />
    </marker>
    <pattern
       y="0"
       x="0"
       width="8"
       patternUnits="userSpaceOnUse"
       id="Hatch-6"
       height="8">
      <path
         id="path4807"
         stroke-width="0.25"
         stroke="#000000"
         linecap="square"
         d="M8 4 l-4,4" />
      <path
         id="path4809"
         stroke-width="0.25"
         stroke="#000000"
         linecap="square"
         d="M6 2 l-4,4" />
      <path
         id="path4811"
         stroke-width="0.25"
         stroke="#000000"
         linecap="square"
         d="M4 0 l-4,4" />
    </pattern>
    <symbol
       id="*MODEL_SPACE-5" />
    <symbol
       id="*PAPER_SPACE-44" />
  </defs>
  <sodipodi:namedview
     id="base"
     pagecolor="#ffffff"
     bordercolor="#666666"
     borderopacity="1.0"
     inkscape:pageopacity="0.0"
     inkscape:pageshadow="2"
     inkscape:zoom="0.3599046"
     inkscape:cx="1589.2913"
     inkscape:cy="1122.5197"
     inkscape:document-units="mm"
     inkscape:current-layer="layer1"
     showgrid="false"
     objecttolerance="50"
     guidetolerance="20"
     inkscape:window-width="1920"
     inkscape:window-height="1001"
     inkscape:window-x="-9"
     inkscape:window-y="-9"
     inkscape:window-maximized="1" />
  <metadata
     id="metadata4440">
    <rdf:RDF>
      <cc:Work
         rdf:about="">
        <dc:format>image/svg+xml</dc:format>
        <dc:type
           rdf:resource="http://purl.org/dc/dcmitype/StillImage" />
        <dc:title></dc:title>
      </cc:Work>
    </rdf:RDF>
  </metadata>
  <g
     inkscape:label="Layer 1"
     inkscape:groupmode="layer"
     id="layer1"
     transform="translate(0,297)">
    <g
       id="g4599"
       inkscape:label="0"
       transform="matrix(0.26458333,0,0,0.26458333,5.1322917,-5.1322919)">
      <path
         id="path4581"
         style="fill:none;stroke:#000000"
         d="m 944.88189,593.38583 a 18.89764,18.89764 0 1 0 -37.79528,0 18.89764,18.89764 0 1 0 37.79528,0 z"
         inkscape:connector-curvature="0" />
      <path
         id="path4583"
         style="fill:none;stroke:#000000"
         d="M 1046.9291,347.71654 V 253.22835 H 774.80315 v 94.48819 z"
         inkscape:connector-curvature="0" />
      <path
         id="path4585"
         style="fill:none;stroke:#000000"
         d="m 850.3937,593.38583 a 18.897638,18.897638 0 1 0 -37.79527,0 18.897638,18.897638 0 1 0 37.79527,0 z"
         inkscape:connector-curvature="0" />
      <path
         id="path4587"
         style="fill:none;stroke:#000000"
         d="m 944.88189,498.89764 a 18.89764,18.89764 0 1 0 -37.79528,0 18.89764,18.89764 0 1 0 37.79528,0 z"
         inkscape:connector-curvature="0" />
      <path
         id="path4589"
         style="fill:none;stroke:#000000"
         d="m 850.3937,498.89764 a 18.897638,18.897638 0 1 0 -37.79527,0 18.897638,18.897638 0 1 0 37.79527,0 z"
         inkscape:connector-curvature="0" />
      <path
         id="path4591"
         style="fill:none;stroke:#000000"
         d="m 1020.4724,593.38583 v -94.48819 h -9.8267 v 94.48819 z"
         inkscape:connector-curvature="0" />
      <path
         id="path4593"
         style="fill:none;stroke:#000000"
         d="M 113.38583,744.56693 H 718.11024 V 102.04724 H 113.38583 Z"
         inkscape:connector-curvature="0" />
      <path
         id="path4595"
         style="fill:none;stroke:#000000"
         d="M 113.38583,1046.9291 H 718.11024 V 820.15748 H 113.38583 Z"
         inkscape:connector-curvature="0" />
      <path
         id="path4597"
         style="fill:none;stroke:#000000"
         d="m 1133.8583,177.63779 h -15.1181 v 113.38583 h 15.1181 v 207.87402 h -15.1181 v 113.38582 h 15.1181 v 207.87402 h -15.1181 v 113.38583 h 15.1181 V 1122.5197 H 944.88189 v -15.1181 H 831.49606 v 15.1181 h -100.7874 v -15.1181 H 617.32284 v 15.1181 H 516.53543 v -15.1181 H 403.14961 v 15.1181 h -100.7874 v -15.1181 H 188.97638 v 15.1181 H 0 V 933.54331 H 15.11811 V 820.15748 H 0 V 612.28346 H 15.11811 V 498.89764 H 0 V 291.02362 H 15.11811 V 177.63779 H 0 V -11.338583 H 188.97638 V 3.779528 h 113.38583 v -15.118111 h 100.7874 V 3.779528 H 516.53543 V -11.338583 H 617.32284 V 3.779528 h 113.38582 v -15.118111 h 100.7874 V 3.779528 h 113.38583 v -15.118111 h 188.97641 z"
         inkscape:connector-curvature="0" />
    </g>
    <g
       id="g4643"
       inkscape:label="0"
       transform="matrix(0.26458333,0,0,0.26458333,610.1323,-5.1322919)">
      <path
         id="path4641"
         style="fill:none;stroke:#000000"
         d="m -1118.7402,177.63779 h -15.1181 V -11.338583 h 188.97641 V 3.779528 h 113.38583 v -15.118111 h 100.7874 V 3.779528 h 113.38582 v -15.118111 h 100.78741 V 3.779528 h 113.38582 v -15.118111 h 100.7874 V 3.779528 h 113.38583 V -11.338583 H 0 V 177.63779 H -15.11811 V 291.02362 H 0 V 498.89764 H -15.11811 V 612.28346 H 0 V 820.15748 H -15.11811 V 933.54331 H 0 v 188.97639 h -188.97638 v -15.1181 h -113.38583 v 15.1181 h -100.7874 v -15.1181 h -113.38582 v 15.1181 h -100.78741 v -15.1181 h -113.38582 v 15.1181 h -100.7874 v -15.1181 h -113.38583 v 15.1181 H -1133.8583 V 933.54331 h 15.1181 V 820.15748 h -15.1181 V 612.28346 h 15.1181 V 498.89764 h -15.1181 V 291.02362 h 15.1181 z"
         inkscape:connector-curvature="0" />
    </g>
    <g
       id="g4687"
       inkscape:label="0"
       transform="matrix(0,-0.26458333,0.26458333,0,8.132291,-293.13228)">
      <path
         id="path4677"
         style="fill:none;stroke:#000000"
         d="m -453.54331,767.24409 v 15.11812 h 113.38583 v -15.11812 z"
         inkscape:connector-curvature="0" />
      <path
         id="path4679"
         style="fill:none;stroke:#000000"
         d="m -869.29134,767.24409 v 15.11812 h 113.38583 v -15.11812 z"
         inkscape:connector-curvature="0" />
      <path
         id="path4681"
         style="fill:none;stroke:#000000"
         d="m -453.54331,427.08661 v 15.11811 h 113.38583 v -15.11811 z"
         inkscape:connector-curvature="0" />
      <path
         id="path4683"
         style="fill:none;stroke:#000000"
         d="m -869.29134,427.08661 v 15.11811 h 113.38583 v -15.11811 z"
         inkscape:connector-curvature="0" />
      <path
         id="path4685"
         style="fill:none;stroke:#000000"
         d="M -1043.1496,177.63779 V 3.779528 h 98.26771 v -15.118111 h 113.38583 V 3.779528 h 100.7874 v -15.118111 h 113.38582 V 3.779528 h 100.78741 v -15.118111 h 113.38582 V 3.779528 h 100.7874 v -15.118111 h 113.38583 V 3.779528 H -15.11811 V 177.63779 H 0 V 291.02362 H -15.11811 V 498.89764 H 0 V 612.28346 H -15.11811 V 820.15748 H 0 v 113.38583 h -15.11811 v 173.85829 h -173.85827 v 15.1181 h -113.38583 v -15.1181 h -100.7874 v 15.1181 h -113.38582 v -15.1181 h -100.78741 v 15.1181 h -113.38582 v -15.1181 h -100.7874 v 15.1181 h -113.38583 v -15.1181 h -98.26771 V 933.54331 h -15.1181 V 820.15748 h 15.1181 V 612.28346 h -15.1181 V 498.89764 h 15.1181 V 291.02362 h -15.1181 V 177.63779 Z"
         inkscape:connector-curvature="0" />
    </g>
    <g
       transform="matrix(0,0.26458333,-0.26458333,0,607.1323,-13.132324)"
       inkscape:label="0"
       id="g4719">
      <path
         inkscape:connector-curvature="0"
         d="m -453.54331,767.24409 v 15.11812 h 113.38583 v -15.11812 z"
         style="fill:none;stroke:#000000"
         id="path4709" />
      <path
         inkscape:connector-curvature="0"
         d="m -869.29134,767.24409 v 15.11812 h 113.38583 v -15.11812 z"
         style="fill:none;stroke:#000000"
         id="path4711" />
      <path
         inkscape:connector-curvature="0"
         d="m -453.54331,427.08661 v 15.11811 h 113.38583 v -15.11811 z"
         style="fill:none;stroke:#000000"
         id="path4713" />
      <path
         inkscape:connector-curvature="0"
         d="m -869.29134,427.08661 v 15.11811 h 113.38583 v -15.11811 z"
         style="fill:none;stroke:#000000"
         id="path4715" />
      <path
         inkscape:connector-curvature="0"
         d="M -1043.1496,177.63779 V 3.779528 h 98.26771 v -15.118111 h 113.38583 V 3.779528 h 100.7874 v -15.118111 h 113.38582 V 3.779528 h 100.78741 v -15.118111 h 113.38582 V 3.779528 h 100.7874 v -15.118111 h 113.38583 V 3.779528 H -15.11811 V 177.63779 H 0 V 291.02362 H -15.11811 V 498.89764 H 0 V 612.28346 H -15.11811 V 820.15748 H 0 v 113.38583 h -15.11811 v 173.85829 h -173.85827 v 15.1181 h -113.38583 v -15.1181 h -100.7874 v 15.1181 h -113.38582 v -15.1181 h -100.78741 v 15.1181 h -113.38582 v -15.1181 h -100.7874 v 15.1181 h -113.38583 v -15.1181 h -98.26771 V 933.54331 h -15.1181 V 820.15748 h 15.1181 V 612.28346 h -15.1181 V 498.89764 h 15.1181 V 291.02362 h -15.1181 V 177.63779 Z"
         style="fill:none;stroke:#000000"
         id="path4717" />
    </g>
    <g
       id="g4741"
       inkscape:label="0"
       transform="matrix(0,0.26458333,-0.26458333,0,1172.1323,291.86771)">
      <path
         id="path4737"
         style="fill:none;stroke:#000000"
         d="m -423.45001,1878.4252 v 113.3858 h 15.11811 v -113.3858 z"
         inkscape:connector-curvature="0" />
      <path
         id="path4739"
         style="fill:none;stroke:#000000"
         d="M -18.897638,2105.1968 H -1114.9606 V 1991.811 h -18.8977 v -113.3858 h 18.8977 V 1727.2441 H -18.897638 v 151.1811 H 0 v 113.3858 h -18.897638 z"
         inkscape:connector-curvature="0" />
    </g>
    <g
       transform="matrix(0,0.26458333,0.26458333,0,263.1323,291.86771)"
       inkscape:label="0"
       id="g4764">
      <path
         inkscape:connector-curvature="0"
         d="m -423.45001,1878.4252 v 113.3858 h 15.11811 v -113.3858 z"
         style="fill:none;stroke:#000000"
         id="path4760" />
      <path
         inkscape:connector-curvature="0"
         d="M -18.897638,2105.1968 H -1114.9606 V 1991.811 h -18.8977 v -113.3858 h 18.8977 V 1727.2441 H -18.897638 v 151.1811 H 0 v 113.3858 h -18.897638 z"
         style="fill:none;stroke:#000000"
         id="path4762" />
    </g>
    <g
       id="g4832"
       inkscape:label="0"
       transform="matrix(0.26458333,0,0,0.26458333,565.13229,-205.13229)">
      <path
         id="path4818"
         style="fill:none;stroke:#000000"
         d="m 188.97638,215.43307 h 453.5433 v 491.33858 h -453.5433 z"
         inkscape:connector-curvature="0" />
      <path
         id="path4820"
         style="fill:none;stroke:#000000"
         d="M 423.45001,272.12598 H 408.3319 v 113.38583 h 15.11811 z"
         inkscape:connector-curvature="0" />
      <path
         id="path4822"
         style="fill:none;stroke:#000000"
         d="m 408.3319,650.07874 h 15.11811 V 536.69291 H 408.3319 Z"
         inkscape:connector-curvature="0" />
      <path
         id="path4824"
         style="fill:none;stroke:#000000"
         d="m 542.36221,281.5748 v 94.48819 h 49.13385 V 281.5748 Z"
         inkscape:connector-curvature="0" />
      <path
         id="path4826"
         style="fill:none;stroke:#000000"
         d="m 240,583.93701 v 94.48819 h 49.13386 v -94.48819 z"
         inkscape:connector-curvature="0" />
      <path
         id="path4828"
         style="fill:none;stroke:#000000"
         d="M 289.13386,281.5748 H 240 v 94.48819 h 49.13386 z"
         inkscape:connector-curvature="0" />
      <path
         id="path4830"
         style="fill:none;stroke:#000000"
         d="m 542.36221,583.93701 v 94.48819 h 49.13385 v -94.48819 z"
         inkscape:connector-curvature="0" />
    </g>
  </g>
</svg>
