<?xml version="1.0" encoding="UTF-8" standalone="no"?>
<!-- Created with Inkscape (http://www.inkscape.org/) -->

<svg
   xmlns:dc="http://purl.org/dc/elements/1.1/"
   xmlns:cc="http://creativecommons.org/ns#"
   xmlns:rdf="http://www.w3.org/1999/02/22-rdf-syntax-ns#"
   xmlns:svg="http://www.w3.org/2000/svg"
   xmlns="http://www.w3.org/2000/svg"
   xmlns:sodipodi="http://sodipodi.sourceforge.net/DTD/sodipodi-0.dtd"
   xmlns:inkscape="http://www.inkscape.org/namespaces/inkscape"
   width="800mm"
   height="600mm"
   viewBox="0 0 800 600"
   version="1.1"
   id="svg8"
   inkscape:version="0.92.5 (2060ec1f9f, 2020-04-08)"
   sodipodi:docname="Layout-1.svg">
  <defs
     id="defs2">
    <marker
       style="overflow:visible"
       refY="0.0"
       refX="0.0"
       orient="auto"
       id="DistanceX">
      <path
         id="path12"
         style="stroke:#000000; stroke-width:0.5"
         d="M 3,-3 L -3,3 M 0,-5 L  0,5" />
    </marker>
    <pattern
       y="0"
       x="0"
       width="8"
       patternUnits="userSpaceOnUse"
       id="Hatch"
       height="8">
      <path
         id="path15"
         stroke-width="0.25"
         stroke="#000000"
         linecap="square"
         d="M8 4 l-4,4" />
      <path
         id="path17"
         stroke-width="0.25"
         stroke="#000000"
         linecap="square"
         d="M6 2 l-4,4" />
      <path
         id="path19"
         stroke-width="0.25"
         stroke="#000000"
         linecap="square"
         d="M4 0 l-4,4" />
    </pattern>
    <symbol
       id="*MODEL_SPACE" />
    <symbol
       id="*PAPER_SPACE" />
    <marker
       style="overflow:visible"
       refY="0.0"
       refX="0.0"
       orient="auto"
       id="DistanceX-0">
      <path
         id="path76"
         style="stroke:#000000; stroke-width:0.5"
         d="M 3,-3 L -3,3 M 0,-5 L  0,5" />
    </marker>
    <pattern
       y="0"
       x="0"
       width="8"
       patternUnits="userSpaceOnUse"
       id="Hatch-2"
       height="8">
      <path
         id="path79"
         stroke-width="0.25"
         stroke="#000000"
         linecap="square"
         d="M8 4 l-4,4" />
      <path
         id="path81"
         stroke-width="0.25"
         stroke="#000000"
         linecap="square"
         d="M6 2 l-4,4" />
      <path
         id="path83"
         stroke-width="0.25"
         stroke="#000000"
         linecap="square"
         d="M4 0 l-4,4" />
    </pattern>
    <symbol
       id="*MODEL_SPACE-3" />
    <symbol
       id="*PAPER_SPACE-2" />
    <marker
       style="overflow:visible"
       refY="0.0"
       refX="0.0"
       orient="auto"
       id="DistanceX-7">
      <path
         id="path136"
         style="stroke:#000000; stroke-width:0.5"
         d="M 3,-3 L -3,3 M 0,-5 L  0,5" />
    </marker>
    <pattern
       y="0"
       x="0"
       width="8"
       patternUnits="userSpaceOnUse"
       id="Hatch-1"
       height="8">
      <path
         id="path139"
         stroke-width="0.25"
         stroke="#000000"
         linecap="square"
         d="M8 4 l-4,4" />
      <path
         id="path141"
         stroke-width="0.25"
         stroke="#000000"
         linecap="square"
         d="M6 2 l-4,4" />
      <path
         id="path143"
         stroke-width="0.25"
         stroke="#000000"
         linecap="square"
         d="M4 0 l-4,4" />
    </pattern>
    <symbol
       id="*MODEL_SPACE-5" />
    <symbol
       id="*PAPER_SPACE-5" />
    <marker
       style="overflow:visible"
       refY="0.0"
       refX="0.0"
       orient="auto"
       id="DistanceX-5">
      <path
         id="path172"
         style="stroke:#000000; stroke-width:0.5"
         d="M 3,-3 L -3,3 M 0,-5 L  0,5" />
    </marker>
    <pattern
       y="0"
       x="0"
       width="8"
       patternUnits="userSpaceOnUse"
       id="Hatch-0"
       height="8">
      <path
         id="path175"
         stroke-width="0.25"
         stroke="#000000"
         linecap="square"
         d="M8 4 l-4,4" />
      <path
         id="path177"
         stroke-width="0.25"
         stroke="#000000"
         linecap="square"
         d="M6 2 l-4,4" />
      <path
         id="path179"
         stroke-width="0.25"
         stroke="#000000"
         linecap="square"
         d="M4 0 l-4,4" />
    </pattern>
    <symbol
       id="*MODEL_SPACE-1" />
    <symbol
       id="*PAPER_SPACE-4" />
    <marker
       style="overflow:visible"
       refY="0.0"
       refX="0.0"
       orient="auto"
       id="DistanceX-6">
      <path
         id="path244"
         style="stroke:#000000; stroke-width:0.5"
         d="M 3,-3 L -3,3 M 0,-5 L  0,5" />
    </marker>
    <pattern
       y="0"
       x="0"
       width="8"
       patternUnits="userSpaceOnUse"
       id="Hatch-8"
       height="8">
      <path
         id="path247"
         stroke-width="0.25"
         stroke="#000000"
         linecap="square"
         d="M8 4 l-4,4" />
      <path
         id="path249"
         stroke-width="0.25"
         stroke="#000000"
         linecap="square"
         d="M6 2 l-4,4" />
      <path
         id="path251"
         stroke-width="0.25"
         stroke="#000000"
         linecap="square"
         d="M4 0 l-4,4" />
    </pattern>
    <symbol
       id="*MODEL_SPACE-32" />
    <symbol
       id="*PAPER_SPACE-6" />
    <marker
       style="overflow:visible"
       refY="0.0"
       refX="0.0"
       orient="auto"
       id="DistanceX-65">
      <path
         id="path286"
         style="stroke:#000000; stroke-width:0.5"
         d="M 3,-3 L -3,3 M 0,-5 L  0,5" />
    </marker>
    <pattern
       y="0"
       x="0"
       width="8"
       patternUnits="userSpaceOnUse"
       id="Hatch-9"
       height="8">
      <path
         id="path289"
         stroke-width="0.25"
         stroke="#000000"
         linecap="square"
         d="M8 4 l-4,4" />
      <path
         id="path291"
         stroke-width="0.25"
         stroke="#000000"
         linecap="square"
         d="M6 2 l-4,4" />
      <path
         id="path293"
         stroke-width="0.25"
         stroke="#000000"
         linecap="square"
         d="M4 0 l-4,4" />
    </pattern>
    <symbol
       id="*MODEL_SPACE-14" />
    <symbol
       id="*PAPER_SPACE-0" />
    <marker
       style="overflow:visible"
       refY="0.0"
       refX="0.0"
       orient="auto"
       id="DistanceX-4">
      <path
         id="path322"
         style="stroke:#000000; stroke-width:0.5"
         d="M 3,-3 L -3,3 M 0,-5 L  0,5" />
    </marker>
    <pattern
       y="0"
       x="0"
       width="8"
       patternUnits="userSpaceOnUse"
       id="Hatch-19"
       height="8">
      <path
         id="path325"
         stroke-width="0.25"
         stroke="#000000"
         linecap="square"
         d="M8 4 l-4,4" />
      <path
         id="path327"
         stroke-width="0.25"
         stroke="#000000"
         linecap="square"
         d="M6 2 l-4,4" />
      <path
         id="path329"
         stroke-width="0.25"
         stroke="#000000"
         linecap="square"
         d="M4 0 l-4,4" />
    </pattern>
    <symbol
       id="*MODEL_SPACE-13" />
    <symbol
       id="*PAPER_SPACE-61" />
    <marker
       style="overflow:visible"
       refY="0.0"
       refX="0.0"
       orient="auto"
       id="DistanceX-02">
      <path
         id="path358"
         style="stroke:#000000; stroke-width:0.5"
         d="M 3,-3 L -3,3 M 0,-5 L  0,5" />
    </marker>
    <pattern
       y="0"
       x="0"
       width="8"
       patternUnits="userSpaceOnUse"
       id="Hatch-5"
       height="8">
      <path
         id="path361"
         stroke-width="0.25"
         stroke="#000000"
         linecap="square"
         d="M8 4 l-4,4" />
      <path
         id="path363"
         stroke-width="0.25"
         stroke="#000000"
         linecap="square"
         d="M6 2 l-4,4" />
      <path
         id="path365"
         stroke-width="0.25"
         stroke="#000000"
         linecap="square"
         d="M4 0 l-4,4" />
    </pattern>
    <symbol
       id="*MODEL_SPACE-35" />
    <symbol
       id="*PAPER_SPACE-62" />
  </defs>
  <sodipodi:namedview
     id="base"
     pagecolor="#ffffff"
     bordercolor="#666666"
     borderopacity="1.0"
     inkscape:pageopacity="0.0"
     inkscape:pageshadow="2"
     inkscape:zoom="0.35"
     inkscape:cx="1933.7168"
     inkscape:cy="1299.9856"
     inkscape:document-units="mm"
     inkscape:current-layer="layer1"
     showgrid="false"
     showguides="true"
     inkscape:guide-bbox="true"
     guidetolerance="10000"
     inkscape:window-width="1920"
     inkscape:window-height="1001"
     inkscape:window-x="-9"
     inkscape:window-y="-9"
     inkscape:window-maximized="1" />
  <metadata
     id="metadata5">
    <rdf:RDF>
      <cc:Work
         rdf:about="">
        <dc:format>image/svg+xml</dc:format>
        <dc:type
           rdf:resource="http://purl.org/dc/dcmitype/StillImage" />
        <dc:title></dc:title>
      </cc:Work>
    </rdf:RDF>
  </metadata>
  <g
     inkscape:label="Layer 1"
     inkscape:groupmode="layer"
     id="layer1"
     transform="translate(0,303)">
    <g
       id="g108"
       inkscape:label="0"
       transform="matrix(0.26458333,0,0,0.26458333,5.1322917,-5.1322919)">
      <path
         id="path90"
         style="fill:none;stroke:#000000"
         d="m 944.88189,593.38583 a 18.89764,18.89764 0 1 0 -37.79528,0 18.89764,18.89764 0 1 0 37.79528,0 z"
         inkscape:connector-curvature="0" />
      <path
         id="path92"
         style="fill:none;stroke:#000000"
         d="M 1046.9291,347.71654 V 253.22835 H 774.80315 v 94.48819 z"
         inkscape:connector-curvature="0" />
      <path
         id="path94"
         style="fill:none;stroke:#000000"
         d="m 850.3937,593.38583 a 18.897638,18.897638 0 1 0 -37.79527,0 18.897638,18.897638 0 1 0 37.79527,0 z"
         inkscape:connector-curvature="0" />
      <path
         id="path96"
         style="fill:none;stroke:#000000"
         d="m 944.88189,498.89764 a 18.89764,18.89764 0 1 0 -37.79528,0 18.89764,18.89764 0 1 0 37.79528,0 z"
         inkscape:connector-curvature="0" />
      <path
         id="path98"
         style="fill:none;stroke:#000000"
         d="m 850.3937,498.89764 a 18.897638,18.897638 0 1 0 -37.79527,0 18.897638,18.897638 0 1 0 37.79527,0 z"
         inkscape:connector-curvature="0" />
      <path
         id="path100"
         style="fill:none;stroke:#000000"
         d="m 1020.4724,593.38583 v -94.48819 h -9.8267 v 94.48819 z"
         inkscape:connector-curvature="0" />
      <path
         id="path102"
         style="fill:none;stroke:#000000"
         d="M 113.38583,744.56693 H 718.11024 V 102.04724 H 113.38583 Z"
         inkscape:connector-curvature="0" />
      <path
         id="path104"
         style="fill:none;stroke:#000000"
         d="M 113.38583,1046.9291 H 718.11024 V 820.15748 H 113.38583 Z"
         inkscape:connector-curvature="0" />
      <path
         id="path106"
         style="fill:none;stroke:#000000"
         d="m 1133.8583,177.63779 h -18.8977 v 113.38583 h 18.8977 v 207.87402 h -18.8977 v 113.38582 h 18.8977 v 207.87402 h -18.8977 v 113.38583 h 18.8977 V 1103.622 h -113.3859 v 18.8977 H 856.69291 V 1103.622 H 743.30709 v 18.8977 H 579.52756 V 1103.622 H 466.14173 v 18.8977 H 302.36221 V 1103.622 H 188.97638 v 18.8977 H 0 V 933.54331 H 18.897638 V 820.15748 H 0 V 612.28346 H 18.897638 V 498.89764 H 0 V 291.02362 H 18.897638 V 177.63779 H 0 V -11.338583 H 188.97638 V 7.559055 H 302.36221 V -11.338583 H 466.14173 V 7.559055 H 579.52756 V -11.338583 H 743.30709 V 7.559055 H 856.69291 V -11.338583 H 1020.4724 V 7.559055 h 113.3859 z"
         inkscape:connector-curvature="0" />
    </g>
    <g
       id="g152"
       inkscape:label="0"
       transform="matrix(0.26458333,0,0,0.26458333,610.1323,-5.1322919)">
      <path
         id="path150"
         style="fill:none;stroke:#000000"
         d="m -1114.9606,177.63779 h -18.8977 V 7.559055 h 113.3859 v -18.897638 h 163.77949 V 7.559055 h 113.38582 v -18.897638 h 163.77953 V 7.559055 h 113.38583 v -18.897638 h 163.77952 V 7.559055 h 113.38583 V -11.338583 H 0 V 177.63779 H -18.897638 V 291.02362 H 0 V 498.89764 H -18.897638 V 612.28346 H 0 V 820.15748 H -18.897638 V 933.54331 H 0 v 188.97639 h -188.97638 v -18.8977 h -113.38583 v 18.8977 h -163.77952 v -18.8977 h -113.38583 v 18.8977 h -163.77953 v -18.8977 h -113.38582 v 18.8977 h -163.77949 v -18.8977 h -113.3859 V 933.54331 h 18.8977 V 820.15748 h -18.8977 V 612.28346 h 18.8977 V 498.89764 h -18.8977 V 291.02362 h 18.8977 z"
         inkscape:connector-curvature="0" />
    </g>
    <g
       id="g196"
       inkscape:label="0"
       transform="matrix(0,0.26458333,-0.26458333,0,302.13229,-293.13228)">
      <path
         id="path186"
         style="fill:none;stroke:#000000"
         d="m 755.90551,763.46457 v 18.89764 h 113.38583 v -18.89764 z"
         inkscape:connector-curvature="0" />
      <path
         id="path188"
         style="fill:none;stroke:#000000"
         d="m 340.15748,763.46457 v 18.89764 h 113.38583 v -18.89764 z"
         inkscape:connector-curvature="0" />
      <path
         id="path190"
         style="fill:none;stroke:#000000"
         d="m 755.90551,423.30709 v 18.89763 h 113.38583 v -18.89763 z"
         inkscape:connector-curvature="0" />
      <path
         id="path192"
         style="fill:none;stroke:#000000"
         d="m 340.15748,423.30709 v 18.89763 h 113.38583 v -18.89763 z"
         inkscape:connector-curvature="0" />
      <path
         id="path194"
         style="fill:none;stroke:#000000"
         d="M 1039.3701,7.559055 V 177.63779 h 18.8976 v 113.38583 h -18.8976 v 207.87402 h 18.8976 v 113.38582 h -18.8976 v 207.87402 h 18.8976 v 113.38583 h -18.8976 V 1103.622 h -94.48821 v 18.8977 H 831.49606 v -18.8977 h -100.7874 v 18.8977 H 617.32284 V 1103.622 H 516.53543 v 18.8977 H 403.14961 v -18.8977 h -100.7874 v 18.8977 H 188.97638 V 1103.622 H 18.897638 V 933.54331 H 0 V 820.15748 H 18.897638 V 612.28346 H 0 V 498.89764 H 18.897638 V 291.02362 H 0 V 177.63779 H 18.897638 V 7.559055 H 188.97638 V -11.338583 H 302.36221 V 7.559055 h 100.7874 V -11.338583 H 516.53543 V 7.559055 H 617.32284 V -11.338583 H 730.70866 V 7.559055 h 100.7874 V -11.338583 H 944.88189 V 7.559055 Z"
         inkscape:connector-curvature="0" />
    </g>
    <g
       transform="matrix(0,0.26458333,-0.26458333,0,607.13229,-293.13228)"
       inkscape:label="0"
       id="g240">
      <path
         inkscape:connector-curvature="0"
         d="m 755.90551,763.46457 v 18.89764 h 113.38583 v -18.89764 z"
         style="fill:none;stroke:#000000"
         id="path230" />
      <path
         inkscape:connector-curvature="0"
         d="m 340.15748,763.46457 v 18.89764 h 113.38583 v -18.89764 z"
         style="fill:none;stroke:#000000"
         id="path232" />
      <path
         inkscape:connector-curvature="0"
         d="m 755.90551,423.30709 v 18.89763 h 113.38583 v -18.89763 z"
         style="fill:none;stroke:#000000"
         id="path234" />
      <path
         inkscape:connector-curvature="0"
         d="m 340.15748,423.30709 v 18.89763 h 113.38583 v -18.89763 z"
         style="fill:none;stroke:#000000"
         id="path236" />
      <path
         inkscape:connector-curvature="0"
         d="M 1039.3701,7.559055 V 177.63779 h 18.8976 v 113.38583 h -18.8976 v 207.87402 h 18.8976 v 113.38582 h -18.8976 v 207.87402 h 18.8976 v 113.38583 h -18.8976 V 1103.622 h -94.48821 v 18.8977 H 831.49606 v -18.8977 h -100.7874 v 18.8977 H 617.32284 V 1103.622 H 516.53543 v 18.8977 H 403.14961 v -18.8977 h -100.7874 v 18.8977 H 188.97638 V 1103.622 H 18.897638 V 933.54331 H 0 V 820.15748 H 18.897638 V 612.28346 H 0 V 498.89764 H 18.897638 V 291.02362 H 0 V 177.63779 H 18.897638 V 7.559055 H 188.97638 V -11.338583 H 302.36221 V 7.559055 h 100.7874 V -11.338583 H 516.53543 V 7.559055 H 617.32284 V -11.338583 H 730.70866 V 7.559055 h 100.7874 V -11.338583 H 944.88189 V 7.559055 Z"
         style="fill:none;stroke:#000000"
         id="path238" />
    </g>
    <g
       id="g302"
       inkscape:label="0"
       transform="matrix(0,-0.26458333,0.26458333,0,258.13231,-8.1322964)">
      <path
         id="path300"
         style="fill:none;stroke:#000000"
         d="M -1114.9606,1462.6772 V 1349.2913 H -18.897638 v 113.3859 H 0 v 113.3858 h -18.897638 v 151.1811 H -404.40945 v -113.3858 h -18.89764 v 113.3858 H -1114.9606 V 1576.063 h -18.8977 v -113.3858 z"
         inkscape:connector-curvature="0" />
    </g>
    <g
       id="g374"
       inkscape:label="0"
       transform="matrix(0,-0.26458333,0.26458333,0,583.13229,46.867707)">
      <path
         id="path372"
         style="fill:none;stroke:#000000"
         d="m 869.29134,763.46457 v 18.89764 H 755.90551 V 763.46457 H 453.63828 v 18.89764 H 340.25246 V 763.46457 H 226.77165 V 442.20472 H 491.33858 V 423.30709 H 226.77165 V 120.94488 h 680.31496 v 151.1811 h 18.89764 v 113.38583 h -18.89764 v 37.79528 H 718.11024 v 18.89763 h 188.97637 v 92.50669 h 18.89764 v 113.38583 h -18.89764 v 115.36733 z"
         inkscape:connector-curvature="0" />
    </g>
  </g>
</svg>
