<?xml version="1.0" encoding="UTF-8" standalone="no"?>
<!-- Created with Inkscape (http://www.inkscape.org/) -->

<svg
   xmlns:dc="http://purl.org/dc/elements/1.1/"
   xmlns:cc="http://creativecommons.org/ns#"
   xmlns:rdf="http://www.w3.org/1999/02/22-rdf-syntax-ns#"
   xmlns:svg="http://www.w3.org/2000/svg"
   xmlns="http://www.w3.org/2000/svg"
   xmlns:sodipodi="http://sodipodi.sourceforge.net/DTD/sodipodi-0.dtd"
   xmlns:inkscape="http://www.inkscape.org/namespaces/inkscape"
   width="211.98457mm"
   height="134.51286mm"
   viewBox="0 0 211.98457 134.51286"
   version="1.1"
   id="svg8"
   inkscape:version="0.92.5 (2060ec1f9f, 2020-04-08)"
   sodipodi:docname="Inkscape_1.svg">
  <defs
     id="defs2" />
  <sodipodi:namedview
     id="base"
     pagecolor="#ffffff"
     bordercolor="#666666"
     borderopacity="1.0"
     inkscape:pageopacity="0.0"
     inkscape:pageshadow="2"
     inkscape:zoom="1.4142136"
     inkscape:cx="335.48722"
     inkscape:cy="269.34165"
     inkscape:document-units="mm"
     inkscape:current-layer="layer1"
     showgrid="false"
     objecttolerance="4"
     showguides="false"
     fit-margin-top="5"
     fit-margin-left="5"
     fit-margin-right="5"
     fit-margin-bottom="5"
     inkscape:window-width="1920"
     inkscape:window-height="1001"
     inkscape:window-x="-9"
     inkscape:window-y="-9"
     inkscape:window-maximized="1" />
  <metadata
     id="metadata5">
    <rdf:RDF>
      <cc:Work
         rdf:about="">
        <dc:format>image/svg+xml</dc:format>
        <dc:type
           rdf:resource="http://purl.org/dc/dcmitype/StillImage" />
        <dc:title></dc:title>
      </cc:Work>
    </rdf:RDF>
  </metadata>
  <g
     inkscape:label="Layer 1"
     inkscape:groupmode="layer"
     id="layer1"
     transform="translate(-0.66964149,2.1759127)">
    <rect
       style="fill:#0000ff;stroke-width:0.14489233"
       id="rect16"
       width="20.077938"
       height="32.486786"
       x="29.482143"
       y="18.072735" />
    <rect
       style="fill:#00ff00;stroke-width:0.14355053"
       id="rect18"
       width="19.276787"
       height="19.276787"
       x="6.2041812"
       y="30.836655" />
    <rect
       style="fill:#ff00ff;stroke-width:0.13425153"
       id="rect20"
       width="51.782742"
       height="10.356548"
       x="5.6696415"
       y="6.5860233" />
    <text
       xml:space="preserve"
       style="font-style:normal;font-weight:normal;font-size:10.58333302px;line-height:1.25;font-family:sans-serif;letter-spacing:0px;word-spacing:0px;fill:#000000;fill-opacity:1;stroke:none;stroke-width:0.26458332"
       x="17.764881"
       y="7.2812495"
       id="text3727"><tspan
         sodipodi:role="line"
         id="tspan3725"
         x="17.764881"
         y="16.936745"
         style="stroke-width:0.26458332" /></text>
    <text
       xml:space="preserve"
       style="font-style:normal;font-weight:normal;font-size:10.58333302px;line-height:1.25;font-family:sans-serif;letter-spacing:0px;word-spacing:0px;fill:#000000;fill-opacity:1;stroke:none;stroke-width:0.26458332"
       x="24.054258"
       y="14.362474"
       id="text3731"><tspan
         sodipodi:role="line"
         id="tspan3729"
         x="24.054258"
         y="14.362474"
         style="font-style:normal;font-variant:normal;font-weight:normal;font-stretch:normal;font-size:7.05555534px;font-family:sans-serif;-inkscape-font-specification:'sans-serif, Normal';font-variant-ligatures:normal;font-variant-caps:normal;font-variant-numeric:normal;font-feature-settings:normal;text-align:start;writing-mode:lr-tb;text-anchor:start;stroke-width:0.26458332">1:5</tspan></text>
    <flowRoot
       xml:space="preserve"
       id="flowRoot3733"
       style="font-style:normal;font-weight:normal;font-size:40px;line-height:1.25;font-family:sans-serif;letter-spacing:0px;word-spacing:0px;fill:#000000;fill-opacity:1;stroke:none"><flowRegion
         id="flowRegion3735"><rect
           id="rect3737"
           width="115.66247"
           height="154.55334"
           x="87.88327"
           y="-114.41211" /></flowRegion><flowPara
         id="flowPara3739"></flowPara></flowRoot>    <text
       xml:space="preserve"
       style="font-style:normal;font-weight:normal;font-size:7.05555534px;line-height:1.25;font-family:sans-serif;letter-spacing:0px;word-spacing:0px;fill:#000000;fill-opacity:1;stroke:none;stroke-width:0.26458332"
       x="9.7895832"
       y="44.852081"
       id="text3747"><tspan
         sodipodi:role="line"
         id="tspan3745"
         x="9.7895832"
         y="44.852081"
         style="font-size:7.05555534px;stroke-width:0.26458332">1:1</tspan></text>
    <text
       xml:space="preserve"
       style="font-style:normal;font-weight:normal;font-size:10.58333302px;line-height:1.25;font-family:sans-serif;letter-spacing:0px;word-spacing:0px;fill:#000000;fill-opacity:1;stroke:none;stroke-width:0.26458332"
       x="34.131248"
       y="43.529167"
       id="text3751"><tspan
         sodipodi:role="line"
         id="tspan3749"
         x="34.131248"
         y="53.184662"
         style="stroke-width:0.26458332"></tspan></text>
    <text
       xml:space="preserve"
       style="font-style:normal;font-weight:normal;font-size:7.05555534px;line-height:1.25;font-family:sans-serif;letter-spacing:0px;word-spacing:0px;fill:#000000;fill-opacity:1;stroke:none;stroke-width:0.26458332"
       x="33.602081"
       y="43.793751"
       id="text3755"><tspan
         sodipodi:role="line"
         id="tspan3753"
         x="33.602081"
         y="43.793751"
         style="font-size:7.05555534px;stroke-width:0.26458332">2:1</tspan></text>
    <rect
       style="fill:#ff5555;stroke-width:0.20421612"
       id="rect3757"
       width="33.337498"
       height="16.668751"
       x="65.352081"
       y="5.4291635"
       rx="0"
       ry="3.175" />
    <rect
       style="fill:#ffff00;stroke-width:0.30356786"
       id="rect3795"
       width="35.192432"
       height="21.956612"
       x="66.033722"
       y="-1.8263208"
       rx="0"
       transform="matrix(0.93969262,0.34202014,0.41862801,0.9081578,0,0)" />
    <text
       xml:space="preserve"
       style="font-style:normal;font-weight:normal;font-size:3.52777767px;line-height:1.25;font-family:sans-serif;letter-spacing:0px;word-spacing:0px;fill:#000000;fill-opacity:1;stroke:none;stroke-width:0.26458332"
       x="8.2020836"
       y="59.271866"
       id="text3803"><tspan
         sodipodi:role="line"
         x="8.2020836"
         y="59.271866"
         style="font-size:3.52777767px;stroke-width:0.26458332"
         id="tspan3805">1. create integer-ratio rectangles using Ctrl + drag.</tspan><tspan
         sodipodi:role="line"
         x="8.2020836"
         y="63.681587"
         style="font-size:3.52777767px;stroke-width:0.26458332"
         id="tspan3809">2. Round the edges by dragging the top-right handle.</tspan><tspan
         sodipodi:role="line"
         x="8.2020836"
         y="68.091309"
         style="font-size:3.52777767px;stroke-width:0.26458332"
         id="tspan3811">3. Rotate/Skew using &quot;Transform&quot;.</tspan></text>
    <ellipse
       style="fill:#ffb380;stroke-width:0.26458332"
       id="path3817"
       cx="136.45885"
       cy="17.467701"
       rx="14.882812"
       ry="3.5718749" />
    <path
       style="fill:#ffb380;stroke-width:0.26458332"
       id="path3819"
       sodipodi:type="arc"
       sodipodi:cx="126.80156"
       sodipodi:cy="27.191137"
       sodipodi:rx="6.1515622"
       sodipodi:ry="6.1515622"
       sodipodi:start="0"
       sodipodi:end="3.9356862"
       sodipodi:open="true"
       d="m 132.95312,27.191137 a 6.1515622,6.1515622 0 0 1 -4.57665,5.946543 6.1515622,6.1515622 0 0 1 -6.92006,-2.901696 6.1515622,6.1515622 0 0 1 1.03333,-7.432316" />
    <path
       style="fill:#ffb380;stroke-width:0.26458332"
       id="path3823"
       sodipodi:type="arc"
       sodipodi:cx="143.20573"
       sodipodi:cy="26.794262"
       sodipodi:rx="6.8130207"
       sodipodi:ry="7.0776043"
       sodipodi:start="0"
       sodipodi:end="2.5710429"
       d="m 150.01875,26.794262 a 6.8130207,7.0776043 0 0 1 -4.89569,6.791558 6.8130207,7.0776043 0 0 1 -7.65119,-2.968981 l 5.73386,-3.822577 z" />
    <path
       sodipodi:type="star"
       style="fill:#668000;stroke-width:0.26458332"
       id="path3833"
       sodipodi:sides="5"
       sodipodi:cx="179.38751"
       sodipodi:cy="26.331242"
       sodipodi:r1="22.860062"
       sodipodi:r2="11.43003"
       sodipodi:arg1="-0.2814793"
       sodipodi:arg2="0.34683923"
       inkscape:flatsided="false"
       inkscape:rounded="0"
       inkscape:randomized="0"
       d="m 201.34793,19.981241 -11.21103,10.235376 2.07596,15.037964 -13.19881,-7.499413 -13.66045,6.621341 3.0537,-14.870268 -10.51857,-10.945751 15.08611,-1.690917 7.15961,-13.3861871 6.27002,13.8252231 z"
       inkscape:transform-center-x="-0.063331169"
       inkscape:transform-center-y="-0.89714026"
       transform="matrix(0.27439453,0,0,0.4571979,114.56492,1.8907892)" />
    <path
       sodipodi:type="star"
       style="fill:#999999;stroke-width:0.20055331"
       id="path3835"
       sodipodi:sides="5"
       sodipodi:cx="181.17403"
       sodipodi:cy="14.224728"
       sodipodi:r1="12.79304"
       sodipodi:r2="4.5800676"
       sodipodi:arg1="1.7282132"
       sodipodi:arg2="2.9857281"
       inkscape:flatsided="false"
       inkscape:rounded="0"
       inkscape:randomized="0"
       d="m 179.16849,26.859589 -2.51901,-11.923878 -8.11166,1.286028 10.56186,-6.080405 -3.72973,-7.3172467 9.04661,8.1659807 5.80656,-5.8083347 -4.97075,11.1272587 7.31838,3.727498 -12.1187,-1.288957 z"
       inkscape:transform-center-x="0.6197404"
       inkscape:transform-center-y="0.61711051" />
    <path
       sodipodi:type="star"
       style="fill:#aad400;stroke-width:0.26458332"
       id="path3837"
       sodipodi:sides="7"
       sodipodi:cx="178.32916"
       sodipodi:cy="25.272907"
       sodipodi:r1="13.496343"
       sodipodi:r2="8.886404"
       sodipodi:arg1="-3.1219872"
       sodipodi:arg2="-2.6731882"
       inkscape:flatsided="true"
       inkscape:rounded="0"
       inkscape:randomized="0"
       d="m 164.83541,25.008322 5.2874,-10.450218 11.46695,-2.381754 9.01165,7.480222 -0.2296,11.709436 -9.29796,7.121207 -11.36476,-2.829436 z"
       inkscape:transform-center-x="0.0099388855"
       inkscape:transform-center-y="-1.6059733"
       transform="matrix(0.69159491,0,0,0.68148611,67.778279,15.698294)" />
    <path
       sodipodi:type="inkscape:offset"
       inkscape:radius="3.2187946"
       inkscape:original="M 163.10938 47.017578 L 162.64258 48.732422 C 161.63888 52.301481 161.34385 56.026435 160.625 59.658203 C 156.9406 57.414193 153.34434 55.007436 149.42578 53.175781 C 151.53297 56.959652 154.19198 60.377078 156.6875 63.902344 C 152.52191 64.915895 148.23703 65.765587 144.16992 67.240234 C 148.33432 68.419579 152.67116 68.97192 156.89062 69.689453 C 154.64973 73.379365 152.2387 76.976749 150.40625 80.898438 C 154.18875 78.792084 157.60757 76.132906 161.13086 73.636719 C 162.14431 77.802982 162.99371 82.088584 164.46875 86.15625 C 165.6484 81.99126 166.20003 77.653647 166.91797 73.433594 C 170.60761 75.675573 174.2046 78.087894 178.12695 79.919922 C 176.01977 76.136051 173.36075 72.718625 170.86523 69.193359 C 175.0315 68.179909 179.3171 67.33051 183.38477 65.855469 C 179.22037 64.676124 174.88354 64.123783 170.66406 63.40625 C 172.90496 59.716338 175.31599 56.118954 177.14844 52.197266 C 173.36457 54.30445 169.94714 56.963467 166.42188 59.458984 C 165.41255 55.319896 164.57371 51.059956 163.10938 47.017578 z "
       style="fill:#e9afaf;stroke-width:0.26458332"
       id="path3841"
       d="m 163.18359,43.800781 a 3.2191165,3.2191165 0 0 0 -3.17968,2.371094 l -0.45899,1.689453 c -0.63404,2.254583 -1.00256,4.428162 -1.32422,6.53125 -2.35264,-1.450855 -4.77235,-2.889779 -7.43164,-4.132812 a 3.2191165,3.2191165 0 0 0 -4.17578,4.482422 c 1.43231,2.571981 3.04272,4.88832 4.6582,7.136718 -2.69493,0.63879 -5.43668,1.334303 -8.19921,2.335938 a 3.2191165,3.2191165 0 0 0 0.2207,6.123047 c 2.82509,0.800056 5.60763,1.301129 8.33984,1.75 -1.45323,2.357197 -2.89649,4.780477 -4.14258,7.447265 a 3.2191165,3.2191165 0 0 0 4.48243,4.175782 c 2.57092,-1.431667 4.88638,-3.042453 7.13476,-4.658204 0.6388,2.695837 1.33381,5.437644 2.33594,8.201172 a 3.2191165,3.2191165 0 0 0 6.12305,-0.220703 c 0.80014,-2.825073 1.30131,-5.607918 1.75,-8.339844 2.35664,1.453571 4.78216,2.896868 7.44921,4.142579 a 3.2191165,3.2191165 0 0 0 4.17383,-4.482422 c -1.4323,-2.571987 -3.04272,-4.888321 -4.6582,-7.136719 2.69584,-0.6388 5.43764,-1.333811 8.20117,-2.335938 a 3.2191165,3.2191165 0 0 0 -0.2207,-6.123047 c -2.82509,-0.800055 -5.60763,-1.301128 -8.33984,-1.75 1.45323,-2.357198 2.89649,-4.780478 4.14257,-7.447265 a 3.2191165,3.2191165 0 0 0 -4.48242,-4.175781 c -2.57113,1.431826 -4.88705,3.041301 -7.13476,4.65625 -0.63146,-2.668067 -1.3208,-5.381486 -2.3125,-8.119141 a 3.2191165,3.2191165 0 0 0 -2.95118,-2.121094 z"
       transform="matrix(0.54793366,0,0,0.54793366,78.006975,-0.32523133)" />
    <text
       xml:space="preserve"
       style="font-style:normal;font-weight:normal;font-size:3.52777767px;line-height:1.25;font-family:sans-serif;letter-spacing:0px;word-spacing:0px;fill:#000000;fill-opacity:1;stroke:none;stroke-width:0.26458332"
       x="121.17917"
       y="58.345825"
       id="text3853"><tspan
         sodipodi:role="line"
         id="tspan3851"
         x="121.17917"
         y="58.345825"
         style="font-size:3.52777767px;stroke-width:0.26458332">1. Circles, ellipses and arcs</tspan><tspan
         sodipodi:role="line"
         x="121.17917"
         y="62.755547"
         style="font-size:3.52777767px;stroke-width:0.26458332"
         id="tspan3855">2. Stars and polygons</tspan><tspan
         sodipodi:role="line"
         x="121.17917"
         y="67.165268"
         style="font-size:3.52777767px;stroke-width:0.26458332"
         id="tspan3857">3. Dynamic offset can create rounded stars</tspan></text>
    <path
       sodipodi:type="star"
       style="fill:#ff6600;stroke-width:0.1492732"
       id="path3859"
       sodipodi:sides="10"
       sodipodi:cx="41.66555"
       sodipodi:cy="86.543526"
       sodipodi:r1="10.649783"
       sodipodi:r2="4.065784"
       sodipodi:arg1="-0.098273938"
       sodipodi:arg2="0.21588533"
       inkscape:flatsided="false"
       inkscape:rounded="0.28"
       inkscape:randomized="0"
       d="m 52.263948,85.498613 c 0.189515,1.922225 -6.213232,0.02915 -6.626992,1.915854 -0.413761,1.886707 6.193596,2.846783 5.217062,4.513289 -0.976534,1.666506 -5.043742,-3.628467 -6.487459,-2.345291 -1.443718,1.283176 3.337427,5.943601 1.567847,6.71784 -1.769581,0.77424 -1.947714,-5.900128 -3.869938,-5.710613 -1.922224,0.189515 -0.793525,6.770165 -2.680232,6.356405 -1.886707,-0.413761 1.892275,-5.918142 0.225768,-6.894676 -1.666506,-0.976534 -4.621378,5.010756 -5.904554,3.567039 -1.283176,-1.443718 5.009479,-3.675626 4.23524,-5.445207 -0.77424,-1.76958 -6.684023,1.337409 -6.873538,-0.584815 -0.189515,-1.922224 6.213232,-0.02915 6.626993,-1.915853 0.41376,-1.886707 -6.193597,-2.846783 -5.217063,-4.513289 0.976534,-1.666507 5.043742,3.628466 6.48746,2.34529 1.443718,-1.283176 -3.337428,-5.943601 -1.567848,-6.71784 1.769581,-0.77424 1.947714,5.900128 3.869938,5.710613 1.922225,-0.189515 0.793525,-6.770165 2.680233,-6.356404 1.886707,0.41376 -1.892275,5.918141 -0.225769,6.894675 1.666506,0.976534 4.621378,-5.010756 5.904554,-3.567038 1.283176,1.443718 -5.009478,3.675626 -4.235239,5.445206 0.774239,1.769581 6.684022,-1.337409 6.873537,0.584815 z" />
    <path
       sodipodi:type="star"
       style="fill:#ff6600;stroke-width:0.1492732"
       id="path3859-0"
       sodipodi:sides="10"
       sodipodi:cx="65.25399"
       sodipodi:cy="87.008636"
       sodipodi:r1="10.649784"
       sodipodi:r2="4.065784"
       sodipodi:arg1="-0.098273938"
       sodipodi:arg2="0.21588533"
       inkscape:flatsided="false"
       inkscape:rounded="1.56"
       inkscape:randomized="0"
       d="m 75.852389,85.963724 c 1.05587,10.709536 -4.321756,-8.595803 -6.626993,1.915853 -2.305237,10.511656 10.657754,-4.771531 5.217063,4.51329 -5.440691,9.284823 1.556112,-9.494415 -6.487461,-2.345291 -8.043572,7.149124 11.426941,2.404221 1.567848,6.717841 -9.859092,4.313623 6.839598,-6.766484 -3.869938,-5.710614 -10.709536,1.05587 7.831423,8.661643 -2.680232,6.356405 -10.511656,-2.305237 9.51059,-1.453985 0.225768,-6.894676 -9.284821,-5.440691 1.244569,11.610608 -5.904555,3.567039 -7.149123,-8.043572 8.548861,4.413886 4.23524,-5.445207 -4.31362,-9.859093 -5.817668,10.124721 -6.873538,-0.584815 -1.055869,-10.709536 4.321757,8.595802 6.626994,-1.915853 2.305237,-10.511656 -10.657755,4.771531 -5.217064,-4.51329 5.440691,-9.284822 -1.556111,9.494415 6.487461,2.345291 8.043572,-7.149124 -11.426941,-2.404221 -1.567848,-6.717841 9.859093,-4.313621 -6.839598,6.766484 3.869938,5.710614 10.709537,-1.05587 -7.831423,-8.661643 2.680233,-6.356406 10.511656,2.305238 -9.51059,1.453986 -0.225769,6.894677 9.284821,5.440691 -1.244569,-11.610611 5.904555,-3.567039 7.149124,8.043572 -8.54886,-4.413886 -4.23524,5.445207 4.31362,9.859092 5.817668,-10.124721 6.873538,0.584815 z" />
    <path
       sodipodi:type="star"
       style="fill:#ff6600;stroke-width:0.1492732"
       id="path3859-02"
       sodipodi:sides="10"
       sodipodi:cx="19.44206"
       sodipodi:cy="86.776093"
       sodipodi:r1="10.649784"
       sodipodi:r2="4.0682173"
       sodipodi:arg1="-0.098273938"
       sodipodi:arg2="0.21588533"
       inkscape:flatsided="false"
       inkscape:rounded="0"
       inkscape:randomized="0"
       d="m 30.040459,85.73118 -6.624616,1.916375 5.214686,4.512768 -6.485844,-2.343472 1.566232,6.716022 -3.8697,-5.708192 -2.680471,6.353984 0.224538,-6.892578 -5.903324,3.56494 4.23301,-5.444232 -6.8713084,-0.58579 6.6246164,-1.916375 -5.214686,-4.512768 6.485844,2.343472 -1.566232,-6.716022 3.8697,5.708192 2.680471,-6.353983 -0.224539,6.892577 5.903325,-3.56494 -4.233011,5.444232 z" />
    <path
       sodipodi:type="star"
       style="fill:#ff6600;stroke-width:0.23696551"
       id="path3910"
       sodipodi:sides="10"
       sodipodi:cx="79.383446"
       sodipodi:cy="74.293343"
       sodipodi:r1="10.429175"
       sodipodi:r2="3.9815671"
       sodipodi:arg1="-2.7695249"
       sodipodi:arg2="-2.4553656"
       inkscape:flatsided="false"
       inkscape:rounded="0.28"
       inkscape:randomized="0.2"
       d="m 71.086115,68.855437 c 0.874423,-1.775734 3.135922,4.244654 4.574806,3.040439 1.438884,-1.204215 -2.601596,-4.381199 -1.095105,-5.264992 1.506491,-0.883793 3.763579,3.798644 5.667477,3.045458 1.903898,-0.753185 -0.586843,-6.302815 1.26021,-6.136788 1.847052,0.166028 -0.853727,7.133772 0.733605,8.388305 1.587332,1.254533 2.732512,-8.230044 4.244947,-7.39197 1.512435,0.838075 -6.932432,6.439728 -5.696246,8.063319 1.236186,1.623591 8.723052,-1.598907 8.963791,0.196032 0.240738,1.794938 -8.323662,-1.376477 -8.351845,0.400371 -0.02818,1.776848 7.403483,4.624688 7.230287,6.585326 -0.173196,1.960638 -3.368476,-3.982148 -4.574739,-2.578531 -1.206262,1.403616 0.567237,3.725333 -0.851724,5.127428 -1.418961,1.402094 -1.517339,-5.375219 -3.495755,-5.154076 -1.978417,0.221143 1.176469,6.483362 -0.637799,6.421868 -1.814268,-0.06149 0.05333,-5.945333 -1.580908,-6.427204 -1.634242,-0.481871 -3.155232,7.684708 -4.30935,6.157891 -1.154118,-1.526816 2.784278,-6.003545 2.038695,-7.611838 -0.745583,-1.608294 -5.023149,2.489718 -5.237611,0.485043 -0.214461,-2.004676 3.578535,1.557348 4.175948,-0.298848 0.597414,-1.856196 -3.933106,-5.271499 -3.058684,-7.047233 z"
       inkscape:transform-center-x="-0.39710239"
       inkscape:transform-center-y="-1.3312001"
       transform="translate(8.7533534,13.491719)" />
    <path
       sodipodi:type="spiral"
       style="fill:none;fill-rule:evenodd;stroke:#000000;stroke-width:0.20255627"
       id="path3912"
       sodipodi:cx="122.59119"
       sodipodi:cy="85.755096"
       sodipodi:expansion="1"
       sodipodi:revolution="3"
       sodipodi:radius="11.798794"
       sodipodi:argument="-18.642059"
       sodipodi:t0="0"
       d="m 122.59119,85.755096 c 0.57888,0.121871 0.12132,0.84045 -0.20256,0.962143 -0.87769,0.329779 -1.64138,-0.571856 -1.72173,-1.367256 -0.14372,-1.422783 1.20368,-2.479177 2.53196,-2.481313 1.9493,-0.0031 3.33314,1.840931 3.2409,3.696653 -0.12295,2.473385 -2.47971,4.193471 -4.86136,4.000484 -2.99705,-0.242853 -5.05699,-3.119113 -4.76007,-6.02605 0.35961,-3.520691 3.75885,-5.922336 7.19075,-5.519656 4.04438,0.474545 6.78883,4.398786 6.27924,8.355448 -0.58833,4.568123 -5.03886,7.656079 -9.52014,7.038827 -5.09193,-0.701361 -8.52387,-5.679031 -7.79842,-10.684846 0.81386,-5.615767 6.31928,-9.392043 11.84955,-8.557998 6.13965,0.925949 10.26051,6.95957 9.31758,13.014244" />
    <path
       sodipodi:type="spiral"
       style="fill:none;fill-rule:evenodd;stroke:#000000;stroke-width:0.19463333"
       id="path3914"
       sodipodi:cx="174.03941"
       sodipodi:cy="87.283409"
       sodipodi:expansion="0.241254"
       sodipodi:revolution="3"
       sodipodi:radius="12.151731"
       sodipodi:argument="-16.264864"
       sodipodi:t0="0"
       d="m 174.03941,87.283409 c -5.96984,3.717063 -6.9577,-2.719359 -3.52674,-5.664173 3.10679,-2.666579 7.88736,-1.682678 10.22191,1.495494 2.71025,3.689638 1.59581,8.980827 -2.0981,11.551867 -4.06126,2.826732 -9.76733,1.595415 -12.51088,-2.455727 -2.94324,-4.346014 -1.61778,-10.393723 2.71382,-13.278987 4.58077,-3.051243 10.91987,-1.647397 13.92707,2.917698 3.15031,4.782355 1.67917,11.376597 -3.08736,14.491567 -4.96003,3.241425 -11.78203,1.711124 -14.994,-3.233384 -3.32567,-5.119537 -1.74245,-12.147815 3.36205,-15.44826 5.2647,-3.404028 12.48193,-1.772802 15.8639,3.477407 3.47731,5.398209 1.80208,12.79008 -3.5822,16.247784 -5.52203,3.546175 -13.07651,1.830244 -16.60504,-3.678394" />
    <path
       sodipodi:type="spiral"
       style="fill:none;fill-rule:evenodd;stroke:#000000;stroke-width:0.26458332"
       id="path3916"
       sodipodi:cx="196.32083"
       sodipodi:cy="86.127083"
       sodipodi:expansion="1"
       sodipodi:revolution="2.0866497"
       sodipodi:radius="12.331446"
       sodipodi:argument="-18.19113"
       sodipodi:t0="0.35181376"
       d="m 198.62016,82.448151 c 2.70926,0.973951 3.69555,4.234625 2.63245,6.761297 -1.42353,3.383336 -5.5803,4.578938 -8.79718,3.102269 -4.0601,-1.863742 -5.46667,-6.928614 -3.57208,-10.833063 2.2993,-4.738512 8.27838,-6.356899 12.86894,-4.041907 5.41796,2.732241 7.24867,9.629063 4.51173,14.904829 -1.19773,2.308747 -3.16174,4.175546 -5.50771,5.291638" />
    <path
       sodipodi:type="spiral"
       style="fill:none;fill-rule:evenodd;stroke:#000000;stroke-width:0.22184962"
       id="path3912-9"
       sodipodi:cx="147.76118"
       sodipodi:cy="86.490997"
       sodipodi:expansion="2.5536625"
       sodipodi:revolution="3.4211304"
       sodipodi:radius="18.073111"
       sodipodi:argument="-18.642059"
       sodipodi:t0="0"
       d="m 147.76118,86.490997 c 0.009,0.0018 -0.003,0.02046 -0.005,0.02219 -0.0407,0.04295 -0.10667,-0.01283 -0.12558,-0.04961 -0.0763,-0.148309 0.0755,-0.300162 0.20748,-0.339417 0.33964,-0.101022 0.63209,0.22058 0.68754,0.527842 0.11362,0.629638 -0.47029,1.128953 -1.04941,1.191077 -1.03232,0.110739 -1.81416,-0.843596 -1.86915,-1.805511 -0.0892,-1.560476 1.35736,-2.708904 2.82595,-2.739312 2.22597,-0.04609 3.83275,2.026955 3.81794,4.138029 -0.0213,3.039846 -2.86661,5.203956 -5.76709,5.120431 -4.01252,-0.115548 -6.83977,-3.889682 -6.66137,-7.736955 0.23897,-5.153877 5.10874,-8.756536 10.07014,-8.454676 6.47335,0.393849 10.96988,6.535779 10.51365,12.788114 -0.58229,7.979979 -8.18223,13.494783 -15.91139,12.851103 -6.21418,-0.51752 -11.61929,-4.700238 -14.0625,-10.37894" />
    <text
       xml:space="preserve"
       style="font-style:normal;font-weight:normal;font-size:4.23333311px;line-height:1.25;font-family:sans-serif;letter-spacing:0px;word-spacing:0px;fill:#000000;fill-opacity:1;stroke:none;stroke-width:0.26458332"
       x="112.97707"
       y="105.44165"
       id="text3935"><tspan
         sodipodi:role="line"
         id="tspan3933"
         x="112.97707"
         y="105.44165"
         style="font-size:3.52777767px;stroke-width:0.26458332">1. Each turn of a spiral are uniformly spaced.</tspan><tspan
         sodipodi:role="line"
         x="112.97707"
         y="110.73331"
         style="font-size:3.52777767px;stroke-width:0.26458332"
         id="tspan3939">2. Alt+drag inner handle to create divergence of the </tspan><tspan
         sodipodi:role="line"
         x="112.97707"
         y="116.02499"
         style="font-size:3.52777767px;stroke-width:0.26458332"
         id="tspan3945">    winds. (denser towards the center/periphery)</tspan><tspan
         sodipodi:role="line"
         x="112.97707"
         y="121.31665"
         style="font-size:3.52777767px;stroke-width:0.26458332"
         id="tspan3941">3. Dragging the inner/outer handle to shorten or </tspan><tspan
         sodipodi:role="line"
         x="112.97707"
         y="126.60831"
         style="font-size:3.52777767px;stroke-width:0.26458332"
         id="tspan3951">    lengthen the spiral.</tspan></text>
    <text
       xml:space="preserve"
       style="font-style:normal;font-weight:normal;font-size:3.52777767px;line-height:1.25;font-family:sans-serif;letter-spacing:0px;word-spacing:0px;fill:#000000;fill-opacity:1;stroke:none;stroke-width:0.26458332"
       x="8.2020836"
       y="104.6479"
       id="text3892"><tspan
         sodipodi:role="line"
         id="tspan3890"
         x="8.2020836"
         y="104.6479"
         style="font-size:3.52777767px;stroke-width:0.26458332">1. Draw a star with 10 corners.</tspan><tspan
         sodipodi:role="line"
         x="8.2020836"
         y="109.05762"
         style="font-size:3.52777767px;stroke-width:0.26458332"
         id="tspan3894">2. Round the edges between 0 and 1.</tspan><tspan
         sodipodi:role="line"
         x="8.2020836"
         y="113.46735"
         style="font-size:3.52777767px;stroke-width:0.26458332"
         id="tspan3896">3. Rounding more than value of 1 gives </tspan><tspan
         sodipodi:role="line"
         x="8.2020836"
         y="117.87707"
         style="font-size:3.52777767px;stroke-width:0.26458332"
         id="tspan3898">    a pattern with 10 symmetry lines.</tspan><tspan
         sodipodi:role="line"
         x="8.2020836"
         y="122.28679"
         style="font-size:3.52777767px;stroke-width:0.26458332"
         id="tspan3900">4. Alt + drag makes a randomised figure.</tspan></text>
    <path
       style="fill:none;stroke:#000000;stroke-width:0.26458332px;stroke-linecap:butt;stroke-linejoin:miter;stroke-opacity:1"
       d="m 106.3625,5.4291581 c 0,121.4437519 0,121.4437519 0,121.4437519"
       id="path3963"
       inkscape:connector-curvature="0" />
    <path
       style="fill:none;stroke:#000000;stroke-width:0.26458332px;stroke-linecap:butt;stroke-linejoin:miter;stroke-opacity:1"
       d="m 3.8446415,72.276534 c 204.7874985,0 204.7874985,0 204.7874985,0"
       id="path3965"
       inkscape:connector-curvature="0" />
  </g>
</svg>
